<?xml version="1.0" encoding="UTF-8"?>
<svg id="Capa_2" data-name="Capa 2" xmlns="http://www.w3.org/2000/svg" xmlns:xlink="http://www.w3.org/1999/xlink" viewBox="0 0 277.45 385.68">
  <defs>
    <style>
      .cls-1 {
        fill: #fff;
      }

      .cls-2 {
        fill: #fdfbfc;
      }

      .cls-3 {
        fill: #6b150f;
      }

      .cls-4 {
        fill: #d6b309;
      }

      .cls-5 {
        fill: #1d1d1b;
      }

      .cls-6 {
        fill: url(#Degradado_sin_nombre_12);
      }
    </style>
    <radialGradient id="Degradado_sin_nombre_12" data-name="Degradado sin nombre 12" cx="136.88" cy="195.47" fx="158.55" fy="77.75" r="165.7" gradientUnits="userSpaceOnUse">
      <stop offset=".02" stop-color="#e7cc79"/>
      <stop offset=".2" stop-color="#e6cb74"/>
      <stop offset=".38" stop-color="#e4c868"/>
      <stop offset=".58" stop-color="#e0c553"/>
      <stop offset=".77" stop-color="#dbbf36"/>
      <stop offset=".96" stop-color="#d5b811"/>
      <stop offset="1" stop-color="#d4b709"/>
    </radialGradient>
  </defs>
  <g id="Capa_1-2" data-name="Capa 1">
    <g>
      <rect class="cls-2" x="19.99" y="110.16" width="230.55" height="105.65"/>
      <g>
        <rect class="cls-3" x="36.29" y="216.64" width="197.95" height="97.79"/>
        <path class="cls-4" d="m274.36,245.98c-5.67-54.09-.07-102.7-10.4-140.45C214.63-74.67,11.9,10.64,16,105.53c1.08,25.04-8.28,51.92-10.4,81.5-3.16,44.08-2.07,84.07,1,118.8.39,4.39,3.67,7.95,8.01,8.72,7.21,1.28,16.8,4.05,26.68,10.18,10.85,6.72,17.7,14.79,21.52,20.09,5.97,6.83,11.95,13.65,17.92,20.48,3.6,4.12,9.42,5.47,14.48,3.37,9.7-4.02,25.61-8.53,44.81-5.59,17.48,2.68,30.25,10.39,37.68,16.01,3.13,2.37,14.44-.28,18.06-1.82,15.47-6.57,17.74-8.45,23.13-15.21,5.28-6.62,11.74-11.82,19.87-16.11,6.09-3.21,12.76-3.42,18.62-2.55,4.47.66,8.88-1.54,11.01-5.52,12.29-22.98,9.71-56.23,5.97-91.88ZM39.98,157.33c0-21.03,17.05-38.09,38.09-38.09s38.09,17.05,38.09,38.09-17.05,38.09-38.09,38.09-38.09-17.05-38.09-38.09Zm97.79,133.82c-39.01-2.38-72.54-29.27-83.38-66.91,21.64,5.71,47.62,10.85,77.2,13.38,37.55,3.21,70.44,1.32,96.76-2.06-15.51,35.66-51.85,57.95-90.58,55.59Zm80.55-87.5c-18.33,0-33.2-17.74-33.2-39.63s14.86-39.63,33.2-39.63,33.2,17.74,33.2,39.63-14.86,39.63-33.2,39.63Z"/>
        <path class="cls-6" d="m270.66,251.63c-5.67-54.09-3.46-101.93-10.4-140.45C248.97,47.61,192.29,2.45,130.21,5.41,72.37,8.17,22.66,52.1,12.3,111.18c-4.54,24.65-8.28,51.92-10.4,81.5-3.16,44.08-2.07,84.07,1,118.8.39,4.39,3.67,7.95,8.01,8.72,7.21,1.28,16.8,4.05,26.68,10.18,10.85,6.72,17.7,14.79,21.52,20.09,5.97,6.83,11.95,13.65,17.92,20.48,3.6,4.12,9.42,5.47,14.48,3.37,9.7-4.02,25.61-8.53,44.81-5.59,17.48,2.68,30.25,10.39,37.68,16.01,3.13,2.37,14.44-.28,18.06-1.82,15.47-6.57,17.74-8.45,23.13-15.21,5.28-6.62,11.74-11.82,19.87-16.11,6.09-3.21,12.76-3.42,18.62-2.55,4.47.66,8.88-1.54,11.01-5.52,12.29-22.98,9.71-56.23,5.97-91.88ZM36.29,162.98c0-21.03,17.05-38.09,38.09-38.09s38.09,17.05,38.09,38.09-17.05,38.09-38.09,38.09-38.09-17.05-38.09-38.09Zm97.79,133.82c-39.01-2.38-72.54-29.27-83.38-66.91,21.64,5.71,47.62,10.85,77.2,13.38,37.55,3.21,70.44,1.32,96.76-2.06-15.51,35.66-51.85,57.95-90.58,55.59Zm80.55-87.5c-18.33,0-33.2-17.74-33.2-39.63s14.86-39.63,33.2-39.63,33.2,17.74,33.2,39.63-14.86,39.63-33.2,39.63Z"/>
        <ellipse class="cls-5" cx="74.37" cy="169.67" rx="22.78" ry="27.13"/>
        <ellipse class="cls-5" cx="218.32" cy="176.66" rx="22.78" ry="27.13"/>
        <circle class="cls-1" cx="82.55" cy="161.82" r="4.49"/>
        <circle class="cls-1" cx="228.35" cy="169.67" r="4.49"/>
      </g>
    </g>
  </g>
</svg>