<?xml version="1.0" encoding="UTF-8"?>
<svg id="Capa_2" data-name="Capa 2" xmlns="http://www.w3.org/2000/svg" xmlns:xlink="http://www.w3.org/1999/xlink" viewBox="0 0 811 213">
  <defs>
    <style>
      .cls-1 {
        filter: url(#drop-shadow-1);
      }

      .cls-1, .cls-2 {
        stroke-width: 3px;
      }

      .cls-1, .cls-2, .cls-3, .cls-4, .cls-5, .cls-6, .cls-7 {
        fill: #fff;
      }

      .cls-1, .cls-2, .cls-3, .cls-5 {
        stroke: #fff;
        stroke-miterlimit: 10;
      }

      .cls-2 {
        filter: url(#drop-shadow-3);
      }

      .cls-3 {
        filter: url(#drop-shadow-2);
      }

      .cls-4 {
        filter: url(#drop-shadow-5);
      }

      .cls-5 {
        filter: url(#drop-shadow-4);
      }

      .cls-6 {
        filter: url(#drop-shadow-7);
      }

      .cls-7 {
        filter: url(#drop-shadow-6);
      }
    </style>
    <filter id="drop-shadow-1" filterUnits="userSpaceOnUse">
      <feOffset dx="7" dy="7"/>
      <feGaussianBlur result="blur" stdDeviation="5"/>
      <feFlood flood-color="#000" flood-opacity=".75"/>
      <feComposite in2="blur" operator="in"/>
      <feComposite in="SourceGraphic"/>
    </filter>
    <filter id="drop-shadow-2" filterUnits="userSpaceOnUse">
      <feOffset dx="7" dy="7"/>
      <feGaussianBlur result="blur-2" stdDeviation="5"/>
      <feFlood flood-color="#000" flood-opacity=".75"/>
      <feComposite in2="blur-2" operator="in"/>
      <feComposite in="SourceGraphic"/>
    </filter>
    <filter id="drop-shadow-3" filterUnits="userSpaceOnUse">
      <feOffset dx="7" dy="7"/>
      <feGaussianBlur result="blur-3" stdDeviation="5"/>
      <feFlood flood-color="#000" flood-opacity=".75"/>
      <feComposite in2="blur-3" operator="in"/>
      <feComposite in="SourceGraphic"/>
    </filter>
    <filter id="drop-shadow-4" filterUnits="userSpaceOnUse">
      <feOffset dx="7" dy="7"/>
      <feGaussianBlur result="blur-4" stdDeviation="5"/>
      <feFlood flood-color="#000" flood-opacity=".75"/>
      <feComposite in2="blur-4" operator="in"/>
      <feComposite in="SourceGraphic"/>
    </filter>
    <filter id="drop-shadow-5" filterUnits="userSpaceOnUse">
      <feOffset dx="7" dy="7"/>
      <feGaussianBlur result="blur-5" stdDeviation="5"/>
      <feFlood flood-color="#000" flood-opacity=".75"/>
      <feComposite in2="blur-5" operator="in"/>
      <feComposite in="SourceGraphic"/>
    </filter>
    <filter id="drop-shadow-6" filterUnits="userSpaceOnUse">
      <feOffset dx="7" dy="7"/>
      <feGaussianBlur result="blur-6" stdDeviation="5"/>
      <feFlood flood-color="#000" flood-opacity=".75"/>
      <feComposite in2="blur-6" operator="in"/>
      <feComposite in="SourceGraphic"/>
    </filter>
    <filter id="drop-shadow-7" filterUnits="userSpaceOnUse">
      <feOffset dx="7" dy="7"/>
      <feGaussianBlur result="blur-7" stdDeviation="5"/>
      <feFlood flood-color="#000" flood-opacity=".75"/>
      <feComposite in2="blur-7" operator="in"/>
      <feComposite in="SourceGraphic"/>
    </filter>
  </defs>
  <g id="Capa_1-2" data-name="Capa 1">
    <g>
      <path class="cls-1" d="m10.25,68.58v-34.41c0-3.77-.25-8.04-.25-11.56,0-4.27.5-7.54,1.51-7.54h26.87c9.04,0,32.65.51,40.94.51h4.52c2.01,0,3.26,6.53,3.26,11.05,0,2.51-.5,4.52-1.25,4.52h-11.8c-6.03,0-11.56.51-17.33.51h-6.78c-1.76,0-8.79-.25-15.07-.25-4.77,0-9.29.25-10.55.76v27.88c0,11.56.25,23.86.5,30.89,1.01-.25,2.26-.51,3.27-.51h55c2.26,0,2.51.25,2.51,3.02,0,1.26.5,5.02.5,7.79,0,2.26-.25,4.01-1.26,4.01h-8.04c-4.02.25-7.78.51-11.8.51s-7.78-.25-11.55-.25c-4.77,0-23.11.25-27.63.76,1.26,22.1,1.5,43.19,1.5,64.04,0,2.26.25,5.28.25,8.03s-.25,5.02-.75,5.52c-1,1.01-3.52,1.52-5.78,1.52-4.02,0-8.29-1.26-8.29-2.51,0-5.78-.75-15.07-.75-21.35,0-33.4-1.76-60.28-1.76-92.93Z"/>
      <path class="cls-3" d="m221.96,110.27c0,9.29-2.01,18.59-6.78,27.63-11.55,21.85-28.38,34.15-48.22,34.15-35.16,0-61.03-29.64-65.55-61.28-.25-2.51-.75-5.28-.75-8.04,0-9.79,2.26-20.34,7.78-31.64,4.27-8.29,8.54-13.82,13.56-18.33,10.3-9.3,22.1-14.07,35.41-14.07,27.12,0,47.72,23.36,57.26,41.44,4.52,9.05,7.28,19.34,7.28,30.14Zm-105.99-12.31c0,18.34,4.52,28.63,13.82,41.69,9.29,12.31,23.1,18.34,34.15,18.34,19.09,0,42.7-20.6,42.7-47.72,0-24.87-19.84-57.01-47.22-57.01-23.11,0-43.45,20.85-43.45,44.71Z"/>
      <path class="cls-2" d="m243.3,16.33h4.02c5.02,0,7.79.51,13.31,7.54,11.05,14.06,96.45,147.68,96.45,147.68l1-98.45c0-3.76-.5-16.32-.5-27.88s.5-22.11,2.01-22.11c5.53,0,12.81.25,12.81,4.53,0,29.64.5,58.02.5,86.15v29.64c0,10.05.51,33.14.51,41.94,0,2.76-7.03,4.01-13.82,4.01-6.03,0-11.8-1-12.81-2.76-15.83-26.87-44.21-78.36-71.83-114.03-2.76-3.51-19.59-32.89-23.61-34.91v132.61c0,5.02-.25,9.79-2.01,13.31-1.5,1.76-4.27,2.76-7.03,2.76-3.77,0-7.29-1.5-7.29-3.51,0-32.15.25-73.85.25-106.75v-24.36c0-5.28-.5-13.32-.5-20.6,0-8.04.5-14.82,1.76-14.82h6.78Z"/>
      <path class="cls-5" d="m508.75,110.27c0,9.29-2.01,18.59-6.78,27.63-11.55,21.85-28.38,34.15-48.22,34.15-35.16,0-61.03-29.64-65.55-61.28-.25-2.51-.75-5.28-.75-8.04,0-9.79,2.26-20.34,7.78-31.64,4.27-8.29,8.54-13.82,13.56-18.33,10.3-9.3,22.1-14.07,35.41-14.07,27.12,0,47.72,23.36,57.26,41.44,4.52,9.05,7.28,19.34,7.28,30.14Zm-105.99-12.31c0,18.34,4.52,28.63,13.82,41.69,9.29,12.31,23.1,18.34,34.15,18.34,19.09,0,42.7-20.6,42.7-47.72,0-24.87-19.84-57.01-47.22-57.01-23.11,0-43.45,20.85-43.45,44.71Z"/>
      <path class="cls-4" d="m535.35,170.3c0,4.52-2.01,8.78-4.77,10.55-1.76,1.26-4.02,1.76-6.53,1.76-.75,0-1.76,0-2.76-.25-5.27-.51-9.04-4.77-9.04-10.81v-1c.25-5.02,1.5-9.55,5.27-11.56,2.01-1,3.77-1.51,5.78-1.51,5.77,0,11.05,4.02,11.8,9.54.25,1.26.25,2.26.25,3.27Z"/>
      <path class="cls-7" d="m547.91,102.98c0-23.61,1-48.22,1-72.34,0-5.27.51-9.04,1.76-9.04h5.77c31.9,0,66.31,2.01,91.42,5.28,3.77.25,5.28.51,5.53,4.52.25,6.28.25,16.57.25,22.86v8.78c0,2.51.25,4.77.25,7.28l1.76,47.98c.25,10.3.75,20.35,1,30.89.75,4.27.75,18.33.75,23.1v4.52c0,1.51,0,2.51-.5,2.76-1.51.51-5.28,1.01-8.54,1.01-3.52,0-6.53-.51-6.53-1.76,0-14.82-1.5-42.69-1.76-57.01,0-2.01-.5-3.77-.75-5.77h-2.01c-24.61,0-47.97-.25-71.08-.25-.25,0-.75,0-1,.25,0,.25-.25,1-.5,1,.25,7.03.5,21.1.5,32.15v37.92c0,2.26-1,2.76-3.27,2.76-1.26,0-3.26-.25-5.53-.25-7.28,0-7.28-.76-7.28-3.02,0-24.36-1.26-58.77-1.26-83.63Zm50.99-1.75c13.31,0,26.62-.51,39.43-.51v-4.02c0-10.55-.25-46.22-.25-56.26h-3.77c-6.03-.5-25.62-.5-30.39-.5-8.29,0-27.88.5-38.18.75v31.65c0,11.05,0,21.85.25,26.87.75.25,1.26.25,2.01.25v.25h.51c10.04,1.26,20.34,1.51,30.39,1.51Z"/>
      <path class="cls-6" d="m694.31,8.29c28.88,0,48.47,7.29,64.8,21.36,7.78,6.52,12.56,16.82,13.31,27.38v2.76c0,9.04-3.01,18.33-9.79,25.36-7.54,7.28-30.89,13.82-41.44,13.82,6.03,7.54,57.77,76.35,67.82,89.16v.25c0,.75-.75,1.26-1.26,1.26-5.02,0-14.07.76-19.34.76,0,0-.5-2.01-3.01-5.53-14.57-22.1-43.95-65.05-63.29-85.39l-12.56-.5c-.25,2.01-.25,13.81-.25,15.81,0,7.04.25,13.57.25,20.09,0,4.02,0,7.79-.25,11.81-.25,8.29-.75,37.42-.75,37.42-2.76.25-6.78,1.26-10.05,1.26-2.51,0-4.52-.76-4.77-3.27-.5-5.28-.5-11.3-.5-17.58,0-9.79.25-19.84.5-27.88.25-8.29.25-16.33.25-24.37v-24.36c0-18.08.75-34.66.75-52.24,0-5.02,0-10.29-.25-15.57v-3.52c0-3.52.25-7.54,1.5-7.54,6.53-.51,12.56-.76,18.34-.76Zm-3.27,19.1c0,8.28.5,31.39.5,39.68,0,3.77,0,10.55-.25,14.07,0,1,.25,1.75.25,2.76,1.26.75,3.27.75,4.77,1,27.63-.75,58.52,3.26,58.52-28.38,0-25.37-42.2-31.9-63.54-33.41,0,1.52-.25,2.76-.25,4.28Z"/>
    </g>
  </g>
</svg>